<svg xmlns="http://www.w3.org/2000/svg" xmlns:xlink="http://www.w3.org/1999/xlink" width="500" zoomAndPan="magnify" viewBox="0 0 375 374.999991" height="500" preserveAspectRatio="xMidYMid meet" version="1.0"><path stroke-linecap="round" transform="matrix(-0.501947, -0.00190106, 0.00190106, -0.501947, 503.428459, 449.963778)" fill="none" stroke-linejoin="round" d="M 501.424715 481.995878 C 501.424715 481.995878 524.841254 481.969448 524.841254 481.969448 C 524.841254 481.969448 567.985357 481.86052 567.985357 481.86052 C 567.985357 481.86052 642.786994 481.631693 642.786994 481.631693 C 642.786994 481.631693 617.720859 481.718846 617.720859 481.718846 " stroke="#2c2727" stroke-width="25" stroke-opacity="1" stroke-miterlimit="4"/><path stroke-linecap="round" transform="matrix(-0.501947, -0.00190106, 0.00190106, -0.501947, 503.428459, 449.963778)" fill="none" stroke-linejoin="round" d="M 810.608642 177.132375 C 810.697207 206.681047 810.863991 267.155877 810.918863 298.082125 C 811.002947 328.50242 811.14595 374.479106 811.17374 390.035615 C 811.17374 390.035615 811.195636 401.981206 811.195636 401.981206 C 811.280812 430.634937 811.420329 490.074839 811.505681 520.829764 C 811.590502 551.44461 811.734947 601.911619 811.763648 621.818373 C 811.763648 621.818373 811.786313 629.857298 811.786313 629.857298 C 811.868187 659.693936 812.039215 721.289388 812.09724 753.048319 C 812.149349 768.861548 812.204961 793.818848 812.239769 803.009492 C 812.239769 803.009492 812.31719 837.834536 812.31719 837.834536 C 812.31719 837.834536 812.374249 857.009656 812.374249 857.009656 C 812.374249 857.009656 816.327608 857.010248 816.327608 857.010248 C 844.257611 856.927813 899.316238 856.812671 926.452468 856.733242 C 927.098381 856.730796 927.775423 856.728232 928.421366 856.733568 C 928.421366 856.733568 929.456383 856.729648 929.456383 856.729648 C 929.456383 856.729648 936.576994 856.702679 936.576994 856.702679 C 936.576994 856.702679 936.548407 842.990554 936.548407 842.990554 C 936.548407 842.990554 936.380627 771.97863 936.380627 771.97863 C 936.380627 771.97863 936.323889 759.052614 936.323889 759.052614 C 936.237034 727.900803 936.101409 665.379136 936.01364 633.986081 C 935.984756 626.359636 935.958998 615.449092 935.962153 612.172774 C 935.962153 612.172774 935.87913 582.032635 935.87913 582.032635 C 935.87913 582.032635 935.736101 529.884666 935.736101 529.884666 C 935.736101 529.884666 935.703919 515.223126 935.703919 515.223126 C 935.703919 515.223126 935.59219 473.394234 935.59219 473.394234 C 935.59219 473.394234 935.455677 418.857106 935.455677 418.857106 C 935.455677 418.857106 935.346775 381.884294 935.346775 381.884294 C 935.346775 381.884294 935.262989 345.37832 935.262989 345.37832 C 935.262989 345.37832 935.229123 336.436702 935.229123 336.436702 C 935.229123 336.436702 935.204754 319.728415 935.204754 319.728415 C 935.204754 319.728415 935.120223 297.40939 935.120223 297.40939 C 935.120223 297.40939 935.061752 271.697229 935.061752 271.697229 C 935.061752 271.697229 935.032222 257.736077 935.032222 257.736077 C 935.032222 257.736077 934.863289 192.584153 934.863289 192.584153 C 934.863289 192.584153 934.811269 176.79427 934.811269 176.79427 C 934.811269 176.79427 923.540536 176.237727 923.540536 176.237727 C 923.540536 176.237727 899.089068 176.291423 899.089068 176.291423 C 883.9527 176.294275 853.843241 176.260449 838.870297 176.262682 C 813.244353 176.484252 812.295469 176.627926 810.608642 177.132375 C 810.608642 177.132375 810.889009 284.035371 810.889009 284.035371 " stroke="#2c2727" stroke-width="25" stroke-opacity="1" stroke-miterlimit="4"/><path stroke-linecap="round" transform="matrix(-0.501947, -0.00190106, 0.00190106, -0.501947, 503.428459, 449.963778)" fill="none" stroke-linejoin="round" d="M 810.665893 403.889851 L 933.911411 403.578717 " stroke="#2c2727" stroke-width="25" stroke-opacity="1" stroke-miterlimit="4"/><path stroke-linecap="round" transform="matrix(-0.501947, -0.00190106, 0.00190106, -0.501947, 503.428459, 449.963778)" fill="none" stroke-linejoin="round" d="M 814.284334 627.785555 L 926.206768 627.478395 " stroke="#2c2727" stroke-width="25" stroke-opacity="1" stroke-miterlimit="4"/><path stroke-linecap="round" transform="matrix(-0.501947, -0.00190106, 0.00190106, -0.501947, 503.428459, 449.963778)" fill="none" stroke-linejoin="round" d="M 511.4094 482.028102 C 511.4094 482.028102 498.622928 481.944231 498.622928 481.944231 C 498.622928 481.944231 503.526101 391.636597 503.526101 391.636597 C 503.526101 391.636597 495.764821 397.160224 495.764821 397.160224 C 495.764821 397.160224 496.913417 396.323179 496.913417 396.323179 C 496.913417 396.323179 475.353281 411.852499 475.353281 411.852499 C 475.353281 411.852499 381.125809 479.502042 381.125809 479.502042 C 381.125809 479.502042 342.095115 507.48679 342.095115 507.48679 C 342.095115 507.48679 330.181913 516.061199 330.181913 516.061199 C 330.181913 516.061199 321.265553 522.764313 321.265553 522.764313 C 321.265553 522.764313 343.443081 538.742775 343.443081 538.742775 C 343.443081 538.742775 383.732381 567.734516 383.732381 567.734516 C 383.732381 567.734516 458.277272 620.947017 458.277272 620.947017 C 458.277272 620.947017 480.259923 636.840613 480.259923 636.840613 C 480.259923 636.840613 495.873322 647.72325 495.873322 647.72325 C 495.873322 647.72325 489.537702 643.37365 489.537702 643.37365 C 489.537702 643.37365 504.400925 653.441997 504.400925 653.441997 C 504.400925 653.441997 498.788697 566.808476 498.788697 566.808476 C 498.788697 566.808476 498.648563 562.684441 498.648563 562.684441 C 527.893768 562.604807 590.158284 562.37677 623.216653 562.26713 C 630.951931 562.206704 641.16209 562.183599 643.629041 562.182038 C 643.629041 562.182038 643.40116 481.465941 643.40116 481.465941 " stroke="#2c2727" stroke-width="25" stroke-opacity="1" stroke-miterlimit="4"/></svg>