<svg xmlns="http://www.w3.org/2000/svg" xmlns:xlink="http://www.w3.org/1999/xlink" width="500" zoomAndPan="magnify" viewBox="0 0 375 374.999991" height="500" preserveAspectRatio="xMidYMid meet" version="1.0"><path stroke-linecap="round" transform="matrix(0.492139, 0, 0, 0.545761, -125.807843, -95.528108)" fill="none" stroke-linejoin="round" d="M 663.810307 495.632207 C 663.810307 495.632207 663.826182 531.383588 663.826182 531.383588 " stroke="#2c2727" stroke-width="25" stroke-opacity="1" stroke-miterlimit="4"/><path stroke-linecap="round" transform="matrix(0.492139, 0, 0, 0.545761, -125.807843, -95.528108)" fill="none" stroke-linejoin="round" d="M 663.826182 530.703632 C 663.826182 530.703632 663.826182 506.311098 663.826182 506.311098 " stroke="#2c2727" stroke-width="25" stroke-opacity="1" stroke-miterlimit="4"/><path stroke-linecap="round" transform="matrix(0.492139, 0, 0, 0.545761, -125.807843, -95.528108)" fill="none" stroke-linejoin="round" d="M 583.254703 532.013443 C 583.254703 532.013443 583.222954 494.207878 583.222954 494.207878 " stroke="#2c2727" stroke-width="25" stroke-opacity="1" stroke-miterlimit="4"/><path stroke-linecap="round" transform="matrix(0.492139, 0, 0, 0.545761, -125.807843, -95.528108)" fill="none" stroke-linejoin="round" d="M 583.159456 414.817624 C 583.159456 414.817624 571.261451 386.18789 571.261451 386.18789 " stroke="#2c2727" stroke-width="25" stroke-opacity="1" stroke-miterlimit="4"/><path stroke-linecap="round" transform="matrix(0.492139, 0, 0, 0.545761, -125.807843, -95.528108)" fill="none" stroke-linejoin="round" d="M 556.958446 388.664362 C 556.958446 388.664362 492.372679 392.536533 492.372679 392.536533 C 492.372679 392.536533 502.492729 377.713488 502.492729 377.713488 C 502.492729 377.713488 498.11928 384.054975 498.11928 384.054975 C 498.11928 384.054975 509.025123 368.437454 509.025123 368.437454 C 509.025123 368.437454 525.002897 346.514235 525.002897 346.514235 " stroke="#2c2727" stroke-width="25" stroke-opacity="1" stroke-miterlimit="4"/><path stroke-linecap="round" transform="matrix(0.492139, 0, 0, 0.545761, -125.807843, -95.528108)" fill="none" stroke-linejoin="round" d="M 573.118778 279.470554 C 573.118778 279.470554 578.405016 272.105555 578.405016 272.105555 C 578.405016 272.105555 607.511076 231.887935 607.511076 231.887935 C 607.511076 231.887935 623.560286 209.757151 623.560286 209.757151 C 623.560286 209.757151 630.227613 218.696785 630.227613 218.696785 C 630.227613 218.696785 638.760205 230.628227 638.760205 230.628227 C 638.760205 230.628227 666.659796 269.707815 666.659796 269.707815 C 666.659796 269.707815 673.295375 279.012479 673.295375 279.012479 " stroke="#2c2727" stroke-width="25" stroke-opacity="1" stroke-miterlimit="4"/><path stroke-linecap="round" transform="matrix(0.492139, 0, 0, 0.545761, -125.807843, -95.528108)" fill="none" stroke-linejoin="round" d="M 725.395777 351.989672 C 725.395777 351.989672 734.055366 364.128679 734.055366 364.128679 C 734.055366 364.128679 749.517216 385.715499 749.517216 385.715499 C 749.517216 385.715499 748.6838 384.555995 748.6838 384.555995 C 748.6838 384.555995 754.208157 392.364755 754.208157 392.364755 C 754.208157 392.364755 694.487952 388.786038 694.487952 388.786038 " stroke="#2c2727" stroke-width="25" stroke-opacity="1" stroke-miterlimit="4"/><path stroke-linecap="round" transform="matrix(0.492139, 0, 0, 0.545761, -125.807843, -95.528108)" fill="none" stroke-linejoin="round" d="M 967.91188 699.99841 C 938.353395 699.99841 877.855334 699.99841 846.931634 699.99841 C 816.523858 699.99841 770.558984 699.99841 754.986012 699.99841 C 754.986012 699.99841 743.040383 699.99841 743.040383 699.99841 C 714.378812 699.99841 654.952286 699.99841 624.179395 699.99841 C 593.596998 699.99841 543.107867 699.99841 523.217006 699.99841 C 523.217006 699.99841 515.176526 699.99841 515.176526 699.99841 C 485.35611 699.99841 423.754766 699.99841 391.9659 699.99841 C 376.178621 699.99841 351.192017 699.99841 342.016505 699.99841 C 342.016505 699.99841 307.179718 699.99841 307.179718 699.99841 C 307.179718 699.99841 287.995277 699.99841 287.995277 699.99841 C 287.995277 699.99841 287.995277 703.934999 287.995277 703.934999 C 287.995277 731.863305 287.995277 786.946914 287.995277 814.052115 C 287.995277 814.710599 287.995277 815.37624 287.995277 816.034724 C 287.995277 816.034724 287.995277 817.079709 287.995277 817.079709 C 287.995277 817.079709 287.995277 824.194198 287.995277 824.194198 C 287.995277 824.194198 301.710922 824.194198 301.710922 824.194198 C 301.710922 824.194198 372.710023 824.194198 372.710023 824.194198 C 372.710023 824.194198 385.647814 824.194198 385.647814 824.194198 C 416.801696 824.194198 479.331703 824.194198 510.715767 824.194198 C 518.33557 824.194198 529.257287 824.194198 532.543327 824.194198 C 532.543327 824.194198 562.681235 824.194198 562.681235 824.194198 C 562.681235 824.194198 614.813387 824.194198 614.813387 824.194198 C 614.813387 824.194198 629.481508 824.194198 629.481508 824.194198 C 629.481508 824.194198 671.326926 824.194198 671.326926 824.194198 C 671.326926 824.194198 725.832328 824.194198 725.832328 824.194198 C 725.832328 824.194198 762.812185 824.194198 762.812185 824.194198 C 762.812185 824.194198 799.32374 824.194198 799.32374 824.194198 C 799.32374 824.194198 808.261134 824.194198 808.261134 824.194198 C 808.261134 824.194198 824.977077 824.194198 824.977077 824.194198 C 824.977077 824.194198 847.288812 824.194198 847.288812 824.194198 C 847.288812 824.194198 873.005647 824.194198 873.005647 824.194198 C 873.005647 824.194198 886.967349 824.194198 886.967349 824.194198 C 886.967349 824.194198 952.108726 824.194198 952.108726 824.194198 C 952.108726 824.194198 967.91188 824.194198 967.91188 824.194198 C 967.91188 824.194198 968.49924 812.92124 968.49924 812.92124 C 968.49924 812.92124 968.49924 788.485762 968.49924 788.485762 C 968.546864 773.326318 968.642111 743.207837 968.689735 728.255958 C 968.546864 702.625188 968.380181 701.67325 967.91188 699.99841 C 967.91188 699.99841 860.988583 699.99841 860.988583 699.99841 " stroke="#2c2727" stroke-width="25" stroke-opacity="1" stroke-miterlimit="4"/><path stroke-linecap="round" transform="matrix(0.492139, 0, 0, 0.545761, -125.807843, -95.528108)" fill="none" stroke-linejoin="round" d="M 741.135433 699.475917 L 741.135433 822.68398 " stroke="#2c2727" stroke-width="25" stroke-opacity="1" stroke-miterlimit="4"/><path stroke-linecap="round" transform="matrix(0.492139, 0, 0, 0.545761, -125.807843, -95.528108)" fill="none" stroke-linejoin="round" d="M 517.240223 702.48204 L 517.240223 814.417144 " stroke="#2c2727" stroke-width="25" stroke-opacity="1" stroke-miterlimit="4"/><path stroke-linecap="round" transform="matrix(0.492139, 0, 0, 0.545761, -125.807843, -95.528108)" fill="none" stroke-linejoin="round" d="M 664.000802 531.999128 L 583.326139 531.999128 " stroke="#2c2727" stroke-width="25" stroke-opacity="1" stroke-miterlimit="4"/><path stroke-linecap="round" transform="matrix(0.492139, 0, 0, 0.545761, -125.807843, -95.528108)" fill="none" stroke-linejoin="round" d="M 766.066475 234.178314 C 766.066475 234.178314 765.471178 233.57709 765.471178 233.57709 C 763.256673 231.258081 756.827464 224.6804 755.819428 223.907397 C 753.99385 222.554642 751.50154 221.366508 750.366506 221.523972 C 748.445681 221.853214 746.508981 222.719263 745.429509 223.599627 C 745.429509 223.599627 744.421473 224.508621 744.421473 224.508621 C 744.421473 224.508621 733.793435 235.395078 733.793435 235.395078 C 733.793435 235.395078 708.19566 261.004375 708.19566 261.004375 C 687.09833 282.054388 646.149827 322.901862 626.274841 342.713638 C 625.330303 343.665577 623.750781 345.240212 623.115797 345.870066 C 623.115797 345.870066 615.630928 338.46928 615.630928 338.46928 C 615.630928 338.46928 603.129689 326.08692 603.129689 326.08692 C 603.129689 326.08692 558.895146 281.939869 558.895146 281.939869 C 558.895146 281.939869 519.295982 242.337789 519.295982 242.337789 C 514.478044 237.492206 501.159264 223.964656 500.34966 223.320487 C 499.127316 222.375706 493.801392 221.466712 492.245682 222.232557 C 490.920154 222.933986 486.221275 227.264233 483.093981 230.434976 C 483.093981 230.434976 469.521207 244.127147 469.521207 244.127147 C 469.521207 244.127147 461.353731 252.215047 461.353731 252.215047 " stroke="#2c2727" stroke-width="15" stroke-opacity="1" stroke-miterlimit="4"/><path stroke-linecap="round" transform="matrix(0.492139, 0, 0, 0.545761, -125.807843, -95.528108)" fill="none" stroke-linejoin="round" d="M 675.636877 398.398472 C 675.636877 398.398472 688.225426 411.253222 688.225426 411.253222 C 688.225426 411.253222 709.100511 432.152929 709.100511 432.152929 C 709.100511 432.152929 764.510766 487.601567 764.510766 487.601567 C 764.510766 487.601567 784.020636 506.683285 784.020636 506.683285 C 784.020636 506.683285 797.172733 520.94805 797.172733 520.94805 C 797.172733 520.94805 797.577535 522.665834 797.577535 522.665834 C 797.577535 522.665834 797.648971 524.440878 797.648971 524.440878 C 797.648971 524.440878 797.38704 526.187292 797.38704 526.187292 C 797.38704 526.187292 796.752057 527.840659 796.752057 527.840659 C 796.752057 527.840659 784.901676 540.330381 784.901676 540.330381 C 784.901676 540.330381 771.297153 553.965292 771.297153 553.965292 C 771.297153 553.965292 761.581904 563.599197 761.581904 563.599197 C 761.581904 563.599197 759.542019 565.624751 759.542019 565.624751 " stroke="#2c2727" stroke-width="15" stroke-opacity="1" stroke-miterlimit="4"/><path stroke-linecap="round" transform="matrix(0.492139, 0, 0, 0.545761, -125.807843, -95.528108)" fill="none" stroke-linejoin="round" d="M 789.164003 271.661794 C 789.164003 271.661794 779.385256 281.367274 779.385256 281.367274 C 757.343388 303.390697 713.68033 347.08683 692.043265 368.702279 C 689.114403 371.658299 685.45531 375.294276 684.772703 375.981389 C 684.772703 375.981389 662.437155 398.147961 662.437155 398.147961 C 662.437155 398.147961 651.809118 408.55487 651.809118 408.55487 C 651.809118 408.55487 661.889482 418.725583 661.889482 418.725583 C 661.889482 418.725583 681.399353 438.158015 681.399353 438.158015 C 681.399353 438.158015 740.667132 497.357149 740.667132 497.357149 C 740.667132 497.357149 760.050006 516.510441 760.050006 516.510441 C 760.050006 516.510441 779.464629 535.78541 779.464629 535.78541 C 779.464629 535.78541 750.231572 564.758702 750.231572 564.758702 C 750.231572 564.758702 740.238518 555.403936 740.238518 555.403936 C 740.238518 555.403936 736.333369 551.43156 736.333369 551.43156 C 736.333369 551.43156 715.497971 530.617743 715.497971 530.617743 C 715.497971 530.617743 653.602946 468.519849 653.602946 468.519849 C 653.602946 468.519849 633.450155 448.192737 633.450155 448.192737 C 633.450155 448.192737 622.909428 437.628365 622.909428 437.628365 C 622.909428 437.628365 613.07512 447.240799 613.07512 447.240799 C 613.07512 447.240799 603.161438 457.311308 603.161438 457.311308 C 603.161438 457.311308 603.947231 456.516833 603.947231 456.516833 C 603.947231 456.516833 603.066191 457.411512 603.066191 457.411512 C 603.066191 457.411512 588.953681 471.747851 588.953681 471.747851 C 588.953681 471.747851 530.035142 530.574798 530.035142 530.574798 C 530.035142 530.574798 495.365039 564.90185 495.365039 564.90185 C 495.365039 564.90185 466.544722 536.09318 466.544722 536.09318 C 466.544722 536.09318 497.389049 505.373475 497.389049 505.373475 C 497.389049 505.373475 544.79851 457.955477 544.79851 457.955477 C 544.79851 457.955477 575.539653 427.106938 575.539653 427.106938 C 575.539653 427.106938 593.835117 408.683704 593.835117 408.683704 C 593.835117 408.683704 584.23099 399.142845 584.23099 399.142845 C 584.23099 399.142845 574.793547 389.709347 574.793547 389.709347 C 574.793547 389.709347 558.323661 373.225777 558.323661 373.225777 C 558.323661 373.225777 497.158867 312.008248 497.158867 312.008248 C 497.158867 312.008248 469.521207 284.444971 469.521207 284.444971 C 469.521207 284.444971 460.940992 275.920467 460.940992 275.920467 C 458.242311 273.222115 455.329324 270.080001 455.503945 268.491051 C 455.503945 268.491051 483.403536 240.383809 483.403536 240.383809 C 483.403536 240.383809 505.683522 262.550381 505.683522 262.550381 C 505.683522 262.550381 531.908344 288.803848 531.908344 288.803848 C 531.908344 288.803848 576.206386 332.865009 576.206386 332.865009 C 576.206386 332.865009 622.790368 379.123503 622.790368 379.123503 C 644.340123 357.651202 688.27305 313.854865 710.664158 291.566617 C 712.116683 290.113658 714.426436 287.808964 715.275726 286.95723 C 715.275726 286.95723 744.540532 257.604595 744.540532 257.604595 C 744.540532 257.604595 761.693026 240.620005 761.693026 240.620005 C 761.693026 240.620005 765.487053 243.497293 765.487053 243.497293 C 765.487053 243.497293 772.15438 250.189493 772.15438 250.189493 C 772.15438 250.189493 783.044349 261.004375 783.044349 261.004375 C 783.044349 261.004375 790.465719 269.521722 790.465719 269.521722 " stroke="#2c2727" stroke-width="25" stroke-opacity="1" stroke-miterlimit="4"/><path stroke-linecap="round" transform="matrix(0.492139, 0, 0, 0.545761, -125.807843, -95.528108)" fill="none" stroke-linejoin="round" d="M 456.07543 525.170936 C 456.07543 525.170936 455.686502 524.397933 455.686502 524.397933 C 456.829473 522.000193 463.139622 516.116783 464.052411 515.236418 C 465.55256 513.783459 468.140118 511.156681 469.100531 510.176113 C 469.100531 510.176113 500.103604 479.077063 500.103604 479.077063 C 500.103604 479.077063 576.841369 401.934244 576.841369 401.934244 " stroke="#2c2727" stroke-width="15" stroke-opacity="1" stroke-miterlimit="4"/></svg>