<svg xmlns="http://www.w3.org/2000/svg" xmlns:xlink="http://www.w3.org/1999/xlink" width="500" zoomAndPan="magnify" viewBox="0 0 375 374.999991" height="500" preserveAspectRatio="xMidYMid meet" version="1.0"><path stroke-linecap="round" transform="matrix(0.511611, 0.00193767, -0.00193767, 0.511611, -131.412628, -68.360861)" fill="none" stroke-linejoin="round" d="M 663.84257 390.013902 C 663.84257 390.013902 663.809155 413.446433 663.809155 413.446433 C 663.809155 413.446433 663.812142 456.569987 663.812142 456.569987 C 663.812142 456.569987 663.812943 531.37196 663.812943 531.37196 C 663.812943 531.37196 663.809746 506.336178 663.809746 506.336178 " stroke="#2c2727" stroke-width="25" stroke-opacity="1" stroke-miterlimit="4"/><path stroke-linecap="round" transform="matrix(0.511611, 0.00193767, -0.00193767, 0.511611, -131.412628, -68.360861)" fill="none" stroke-linejoin="round" d="M 967.919989 700.003956 C 938.341272 700.009089 877.870545 700.009059 846.917455 700.004128 C 816.52939 700.004691 770.550282 700.010857 754.989751 700.008709 C 754.989751 700.008709 743.040672 700.008154 743.040672 700.008154 C 714.393435 700.009759 654.953445 700.005825 624.168355 700.007892 C 593.581778 700.009208 543.12079 700.009443 523.208203 700.008508 C 523.208203 700.008508 515.168345 700.008417 515.168345 700.008417 C 485.360546 700.006782 423.736922 700.011119 391.974513 700.009252 C 376.162024 700.008059 351.179685 700.011054 342.009805 700.007608 C 342.009805 700.007608 307.193334 700.009673 307.193334 700.009673 C 307.193334 700.009673 287.990811 700.006048 287.990811 700.006048 C 287.990811 700.006048 287.990404 703.930539 287.990404 703.930539 C 287.989291 731.860075 287.984145 786.948006 287.987573 814.060559 C 287.990117 814.732447 287.984911 815.373823 287.987369 816.022805 C 287.987369 816.022805 287.991302 817.061176 287.991302 817.061176 C 287.991302 817.061176 287.987828 824.207729 287.987828 824.207729 C 287.987828 824.207729 301.723545 824.209153 301.723545 824.209153 C 301.723545 824.209153 372.715561 824.20751 372.715561 824.20751 C 372.715561 824.20751 385.634296 824.204393 385.634296 824.204393 C 416.816438 824.208458 479.333396 824.208373 510.706387 824.20408 C 518.333951 824.205732 529.237023 824.210249 532.550678 824.205334 C 532.550678 824.205334 562.686786 824.205725 562.686786 824.205725 C 562.686786 824.205725 614.835156 824.206734 614.835156 824.206734 C 614.835156 824.206734 629.471813 824.204746 629.471813 824.204746 C 629.471813 824.204746 671.327947 824.20656 671.327947 824.20656 C 671.327947 824.20656 725.827952 824.206297 725.827952 824.206297 C 725.827952 824.206297 762.805209 824.211319 762.805209 824.211319 C 762.805209 824.211319 799.339603 824.210383 799.339603 824.210383 C 799.339603 824.210383 808.257496 824.207148 808.257496 824.207148 C 808.257496 824.207148 824.96329 824.204958 824.96329 824.204958 C 824.96329 824.204958 847.280956 824.20442 847.280956 824.20442 C 847.280956 824.20442 873.019198 824.206197 873.019198 824.206197 C 873.019198 824.206197 886.983967 824.206753 886.983967 824.206753 C 886.983967 824.206753 952.112153 824.204414 952.112153 824.204414 C 952.112153 824.204414 967.924641 824.205608 967.924641 824.205608 C 967.924641 824.205608 968.485132 812.933941 968.485132 812.933941 C 968.485132 812.933941 968.507066 788.485973 968.507066 788.485973 C 968.541258 773.322352 968.648626 743.208748 968.676022 728.266574 C 968.540801 702.643381 968.369214 701.689632 967.919989 700.003956 C 967.919989 700.003956 860.989116 700.004279 860.989116 700.004279 " stroke="#2c2727" stroke-width="25" stroke-opacity="1" stroke-miterlimit="4"/><path stroke-linecap="round" transform="matrix(0.511611, 0.00193767, -0.00193767, 0.511611, -131.412628, -68.360861)" fill="none" stroke-linejoin="round" d="M 741.137483 699.473263 L 741.138435 822.697624 " stroke="#2c2727" stroke-width="25" stroke-opacity="1" stroke-miterlimit="4"/><path stroke-linecap="round" transform="matrix(0.511611, 0.00193767, -0.00193767, 0.511611, -131.412628, -68.360861)" fill="none" stroke-linejoin="round" d="M 517.239187 702.474376 L 517.243238 814.421547 " stroke="#2c2727" stroke-width="25" stroke-opacity="1" stroke-miterlimit="4"/><path stroke-linecap="round" transform="matrix(0.511611, 0.00193767, -0.00193767, 0.511611, -131.412628, -68.360861)" fill="none" stroke-linejoin="round" d="M 663.758204 399.993418 C 663.758204 399.993418 663.893125 387.234501 663.893125 387.234501 C 663.893125 387.234501 754.198718 392.366912 754.198718 392.366912 C 754.198718 392.366912 748.679482 384.569379 748.679482 384.569379 C 748.679482 384.569379 749.516073 385.719124 749.516073 385.719124 C 749.516073 385.719124 734.072306 364.131846 734.072306 364.131846 C 734.072306 364.131846 666.670069 269.710743 666.670069 269.710743 C 666.670069 269.710743 638.745206 230.625064 638.745206 230.625064 C 638.745206 230.625064 630.225008 218.708258 630.225008 218.708258 C 630.225008 218.708258 623.556172 209.7698 623.556172 209.7698 C 623.556172 209.7698 607.514417 231.888626 607.514417 231.888626 C 607.514417 231.888626 578.385716 272.091341 578.385716 272.091341 C 578.385716 272.091341 525.007511 346.530477 525.007511 346.530477 C 525.007511 346.530477 509.026085 368.450559 509.026085 368.450559 C 509.026085 368.450559 498.120981 384.037112 498.120981 384.037112 C 498.120981 384.037112 502.494874 377.706243 502.494874 377.706243 C 502.494874 377.706243 492.37332 392.533944 492.37332 392.533944 C 492.37332 392.533944 579.027758 387.181794 579.027758 387.181794 C 579.027758 387.181794 583.150125 387.013477 583.150125 387.013477 C 583.153986 416.256248 583.206677 478.551581 583.263143 511.604113 C 583.261896 519.338568 583.292923 529.546702 583.294628 532.012862 C 583.294628 532.012862 664.006163 531.989679 664.006163 531.989679 " stroke="#2c2727" stroke-width="25" stroke-opacity="1" stroke-miterlimit="4"/></svg>