<svg xmlns="http://www.w3.org/2000/svg" xmlns:xlink="http://www.w3.org/1999/xlink" width="500" zoomAndPan="magnify" viewBox="0 0 375 374.999991" height="500" preserveAspectRatio="xMidYMid meet" version="1.0"><defs><clipPath id="9dbb8b21d4"><path d="M 128 98 L 324 98 L 324 304 L 128 304 Z M 128 98 " clip-rule="nonzero"/></clipPath><clipPath id="2f68f8ecbb"><path d="M 121.007812 163.808594 L 206.894531 91.140625 L 330.90625 237.71875 L 245.023438 310.382812 Z M 121.007812 163.808594 " clip-rule="nonzero"/></clipPath><clipPath id="02fc8ceb2b"><path d="M 121.007812 163.808594 L 206.894531 91.140625 L 331.785156 238.753906 L 245.902344 311.421875 Z M 121.007812 163.808594 " clip-rule="nonzero"/></clipPath><clipPath id="f83a3a1b67"><path d="M 134.179688 152.664062 L 193.722656 102.285156 C 197.21875 99.328125 201.742188 97.882812 206.300781 98.261719 C 210.859375 98.644531 215.082031 100.820312 218.035156 104.3125 L 319.726562 224.503906 C 322.683594 227.996094 324.128906 232.519531 323.75 237.078125 C 323.371094 241.640625 321.195312 245.859375 317.699219 248.816406 L 258.15625 299.195312 C 254.660156 302.152344 250.136719 303.597656 245.578125 303.21875 C 241.019531 302.835938 236.800781 300.660156 233.84375 297.167969 L 132.152344 176.976562 C 129.195312 173.484375 127.75 168.960938 128.128906 164.402344 C 128.511719 159.839844 130.6875 155.621094 134.179688 152.664062 Z M 134.179688 152.664062 " clip-rule="nonzero"/></clipPath></defs><path stroke-linecap="round" transform="matrix(-0.501947, -0.00190106, 0.00190106, -0.501947, 503.532571, 449.963442)" fill="none" stroke-linejoin="round" d="M 810.613563 177.131722 C 810.694347 206.680428 810.861131 267.155271 810.916003 298.081525 C 811.000087 328.501825 811.14309 374.478519 811.170909 390.042814 C 811.170909 390.042814 811.200558 401.980596 811.200558 401.980596 C 811.285734 430.634332 811.425251 490.074246 811.510603 520.829176 C 811.595424 551.444028 811.732087 601.911076 811.760788 621.817834 C 811.760788 621.817834 811.791264 629.864513 811.791264 629.864513 C 811.873109 659.693375 812.036355 721.288868 812.09441 753.055587 C 812.154271 768.861008 812.209883 793.818312 812.236909 803.008988 C 812.236909 803.008988 812.322112 837.834009 812.322112 837.834009 C 812.322112 837.834009 812.379171 857.009133 812.379171 857.009133 C 812.379171 857.009133 816.33253 857.009724 816.33253 857.009724 C 844.254745 856.927319 899.313362 856.812177 926.457368 856.732719 C 927.103281 856.730273 927.772541 856.727738 928.418483 856.733074 C 928.418483 856.733074 929.453501 856.729154 929.453501 856.729154 C 929.453501 856.729154 936.57411 856.702185 936.57411 856.702185 C 936.57411 856.702185 936.545524 842.990058 936.545524 842.990058 C 936.545524 842.990058 936.377743 771.97812 936.377743 771.97812 C 936.377743 771.97812 936.321005 759.052101 936.321005 759.052101 C 936.241932 727.900255 936.098554 665.386388 936.018538 633.985515 C 935.989654 626.359069 935.963896 615.448522 935.95927 612.172234 C 935.95927 612.172234 935.876246 582.032088 935.876246 582.032088 C 935.876246 582.032088 935.733217 529.88411 935.733217 529.88411 C 935.733217 529.88411 935.708817 515.222538 935.708817 515.222538 C 935.708817 515.222538 935.597088 473.393637 935.597088 473.393637 C 935.597088 473.393637 935.452822 418.86431 935.452822 418.86431 C 935.452822 418.86431 935.343891 381.88371 935.343891 381.88371 C 935.343891 381.88371 935.260105 345.377728 935.260105 345.377728 C 935.260105 345.377728 935.234021 336.436079 935.234021 336.436079 C 935.234021 336.436079 935.20187 319.727818 935.20187 319.727818 C 935.20187 319.727818 935.117339 297.408789 935.117339 297.408789 C 935.117339 297.408789 935.06665 271.696593 935.06665 271.696593 C 935.06665 271.696593 935.037121 257.735439 935.037121 257.735439 C 935.037121 257.735439 934.868187 192.583503 934.868187 192.583503 C 934.868187 192.583503 934.808385 176.793646 934.808385 176.793646 C 934.808385 176.793646 923.537654 176.237103 923.537654 176.237103 C 923.537654 176.237103 899.093973 176.29077 899.093973 176.29077 C 883.949826 176.293651 853.840373 176.259825 838.867432 176.262058 C 813.249303 176.491381 812.292608 176.627302 810.613563 177.131722 C 810.613563 177.131722 810.893931 284.034738 810.893931 284.034738 " stroke="#2c2727" stroke-width="25" stroke-opacity="1" stroke-miterlimit="4"/><path stroke-linecap="round" transform="matrix(-0.501947, -0.00190106, 0.00190106, -0.501947, 503.532571, 449.963442)" fill="none" stroke-linejoin="round" d="M 810.663033 403.88927 L 933.91631 403.578107 " stroke="#2c2727" stroke-width="25" stroke-opacity="1" stroke-miterlimit="4"/><path stroke-linecap="round" transform="matrix(-0.501947, -0.00190106, 0.00190106, -0.501947, 503.532571, 449.963442)" fill="none" stroke-linejoin="round" d="M 814.281474 627.785017 L 926.203886 627.477857 " stroke="#2c2727" stroke-width="25" stroke-opacity="1" stroke-miterlimit="4"/><g clip-path="url(#9dbb8b21d4)"><g clip-path="url(#2f68f8ecbb)"><g clip-path="url(#02fc8ceb2b)"><g clip-path="url(#f83a3a1b67)"><path stroke-linecap="butt" transform="matrix(0.572562, -0.484431, 0.484431, 0.572562, 121.00942, 163.806815)" fill="none" stroke-linejoin="miter" d="M 23.002104 0.000298445 L 126.99698 -0.000758181 C 133.102236 0.000187699 138.951305 2.424652 143.265124 6.736243 C 147.575578 11.051811 149.999962 16.903106 149.998404 23.001022 L 149.99877 232.920038 C 150.001189 239.021318 147.576724 244.870387 143.265133 249.184205 C 138.950178 253.501999 133.102246 255.922408 126.996991 255.921462 L 23.002114 255.922519 C 16.896858 255.921573 11.047789 253.497108 6.733971 249.185517 C 2.423517 244.86995 0.00310828 239.022019 0.000690062 232.920739 L 0.000324185 23.001722 C -0.00209404 16.900443 2.422371 11.051374 6.733962 6.737556 C 11.052893 2.423125 16.900824 0.00271667 23.002104 0.000298445 Z M 23.002104 0.000298445 " stroke="#000000" stroke-width="32" stroke-opacity="1" stroke-miterlimit="4"/></g></g></g></g><path stroke-linecap="butt" transform="matrix(0.593671, -0.458317, 0.458317, 0.593671, 149.950483, 192.456434)" fill="none" stroke-linejoin="miter" d="M 0.000594854 7.002398 L 141.298751 6.998484 " stroke="#000000" stroke-width="14" stroke-opacity="1" stroke-miterlimit="4"/><path fill="#000000" d="M 187.5 222.367188 L 195.621094 215.714844 L 202.277344 223.835938 L 194.15625 230.492188 M 203.742188 209.058594 L 211.863281 202.402344 L 218.519531 210.527344 L 210.398438 217.179688 M 219.988281 195.75 L 228.109375 189.09375 L 234.761719 197.214844 L 226.640625 203.871094 M 236.230469 182.441406 L 244.351562 175.785156 L 251.007812 183.90625 L 242.886719 190.5625 M 252.472656 169.128906 L 260.28125 162.734375 L 266.933594 170.855469 L 259.128906 177.25 " fill-opacity="1" fill-rule="nonzero"/></svg>