<svg xmlns="http://www.w3.org/2000/svg" xmlns:xlink="http://www.w3.org/1999/xlink" width="500" zoomAndPan="magnify" viewBox="0 0 375 374.999991" height="500" preserveAspectRatio="xMidYMid meet" version="1.0"><path stroke-linecap="round" transform="matrix(0, 0.492139, -0.545761, 0, 465.392758, -123.672297)" fill="none" stroke-linejoin="round" d="M 663.804752 495.627558 C 663.804752 495.627558 663.820627 531.378939 663.820627 531.378939 " stroke="#2c2727" stroke-width="25" stroke-opacity="1" stroke-miterlimit="4"/><path stroke-linecap="round" transform="matrix(0, 0.492139, -0.545761, 0, 465.392758, -123.672297)" fill="none" stroke-linejoin="round" d="M 663.820627 530.70614 C 663.820627 530.70614 663.820627 506.313606 663.820627 506.313606 " stroke="#2c2727" stroke-width="25" stroke-opacity="1" stroke-miterlimit="4"/><path stroke-linecap="round" transform="matrix(0, 0.492139, -0.545761, 0, 465.392758, -123.672297)" fill="none" stroke-linejoin="round" d="M 583.257085 532.008793 C 583.257085 532.008793 583.225336 494.203228 583.225336 494.203228 " stroke="#2c2727" stroke-width="25" stroke-opacity="1" stroke-miterlimit="4"/><path stroke-linecap="round" transform="matrix(0, 0.492139, -0.545761, 0, 465.392758, -123.672297)" fill="none" stroke-linejoin="round" d="M 583.161838 414.820132 C 583.161838 414.820132 571.263833 386.18324 571.263833 386.18324 " stroke="#2c2727" stroke-width="25" stroke-opacity="1" stroke-miterlimit="4"/><path stroke-linecap="round" transform="matrix(0, 0.492139, -0.545761, 0, 465.392758, -123.672297)" fill="none" stroke-linejoin="round" d="M 556.95289 388.666869 C 556.95289 388.666869 492.37506 392.539041 492.37506 392.539041 C 492.37506 392.539041 502.495111 377.715996 502.495111 377.715996 C 502.495111 377.715996 498.121662 384.057482 498.121662 384.057482 C 498.121662 384.057482 509.019568 368.439962 509.019568 368.439962 C 509.019568 368.439962 525.005279 346.516743 525.005279 346.516743 " stroke="#2c2727" stroke-width="25" stroke-opacity="1" stroke-miterlimit="4"/><path stroke-linecap="round" transform="matrix(0, 0.492139, -0.545761, 0, 465.392758, -123.672297)" fill="none" stroke-linejoin="round" d="M 573.12116 279.473062 C 573.12116 279.473062 578.407398 272.100905 578.407398 272.100905 C 578.407398 272.100905 607.50552 231.890443 607.50552 231.890443 C 607.50552 231.890443 623.55473 209.759658 623.55473 209.759658 C 623.55473 209.759658 630.229995 218.692135 630.229995 218.692135 C 630.229995 218.692135 638.762587 230.623577 638.762587 230.623577 C 638.762587 230.623577 666.654241 269.710322 666.654241 269.710322 C 666.654241 269.710322 673.297756 279.014986 673.297756 279.014986 " stroke="#2c2727" stroke-width="25" stroke-opacity="1" stroke-miterlimit="4"/><path stroke-linecap="round" transform="matrix(0, 0.492139, -0.545761, 0, 465.392758, -123.672297)" fill="none" stroke-linejoin="round" d="M 725.398159 351.985022 C 725.398159 351.985022 734.057748 364.124029 734.057748 364.124029 C 734.057748 364.124029 749.519598 385.718007 749.519598 385.718007 C 749.519598 385.718007 748.686182 384.558503 748.686182 384.558503 C 748.686182 384.558503 754.202602 392.367263 754.202602 392.367263 C 754.202602 392.367263 694.490333 388.781388 694.490333 388.781388 " stroke="#2c2727" stroke-width="25" stroke-opacity="1" stroke-miterlimit="4"/><path stroke-linecap="round" transform="matrix(0, 0.492139, -0.545761, 0, 465.392758, -123.672297)" fill="none" stroke-linejoin="round" d="M 967.906325 700.000918 C 938.355776 700.000918 877.857716 700.000918 846.926079 700.000918 C 816.52624 700.000918 770.561366 700.000918 754.988394 700.000918 C 754.988394 700.000918 743.042765 700.000918 743.042765 700.000918 C 714.381194 700.000918 654.954668 700.000918 624.173839 700.000918 C 593.591443 700.000918 543.102311 700.000918 523.219388 700.000918 C 523.219388 700.000918 515.178908 700.000918 515.178908 700.000918 C 485.358492 700.000918 423.74921 700.000918 391.968282 700.000918 C 376.181003 700.000918 351.194399 700.000918 342.010949 700.000918 C 342.010949 700.000918 307.1821 700.000918 307.1821 700.000918 C 307.1821 700.000918 287.997659 700.000918 287.997659 700.000918 C 287.997659 700.000918 287.997659 703.937506 287.997659 703.937506 C 287.997659 731.865812 287.997659 786.949421 287.997659 814.054623 C 287.997659 814.713107 287.997659 815.37159 287.997659 816.037232 C 287.997659 816.037232 287.997659 817.07506 287.997659 817.07506 C 287.997659 817.07506 287.997659 824.196706 287.997659 824.196706 C 287.997659 824.196706 301.713304 824.196706 301.713304 824.196706 C 301.713304 824.196706 372.712405 824.196706 372.712405 824.196706 C 372.712405 824.196706 385.650196 824.196706 385.650196 824.196706 C 416.804077 824.196706 479.334085 824.196706 510.718149 824.196706 C 518.330014 824.196706 529.251732 824.196706 532.537772 824.196706 C 532.537772 824.196706 562.683617 824.196706 562.683617 824.196706 C 562.683617 824.196706 614.815769 824.196706 614.815769 824.196706 C 614.815769 824.196706 629.48389 824.196706 629.48389 824.196706 C 629.48389 824.196706 671.329307 824.196706 671.329307 824.196706 C 671.329307 824.196706 725.83471 824.196706 725.83471 824.196706 C 725.83471 824.196706 762.814566 824.196706 762.814566 824.196706 C 762.814566 824.196706 799.326122 824.196706 799.326122 824.196706 C 799.326122 824.196706 808.255579 824.196706 808.255579 824.196706 C 808.255579 824.196706 824.971521 824.196706 824.971521 824.196706 C 824.971521 824.196706 847.291194 824.196706 847.291194 824.196706 C 847.291194 824.196706 873.000092 824.196706 873.000092 824.196706 C 873.000092 824.196706 886.96973 824.196706 886.96973 824.196706 C 886.96973 824.196706 952.103171 824.196706 952.103171 824.196706 C 952.103171 824.196706 967.906325 824.196706 967.906325 824.196706 C 967.906325 824.196706 968.493685 812.923748 968.493685 812.923748 C 968.493685 812.923748 968.493685 788.48827 968.493685 788.48827 C 968.541308 773.328825 968.644493 743.210345 968.692117 728.251308 C 968.541308 702.627696 968.382562 701.675757 967.906325 700.000918 C 967.906325 700.000918 860.990965 700.000918 860.990965 700.000918 " stroke="#2c2727" stroke-width="25" stroke-opacity="1" stroke-miterlimit="4"/><path stroke-linecap="round" transform="matrix(0, 0.492139, -0.545761, 0, 465.392758, -123.672297)" fill="none" stroke-linejoin="round" d="M 741.137814 699.471268 L 741.137814 822.686488 " stroke="#2c2727" stroke-width="25" stroke-opacity="1" stroke-miterlimit="4"/><path stroke-linecap="round" transform="matrix(0, 0.492139, -0.545761, 0, 465.392758, -123.672297)" fill="none" stroke-linejoin="round" d="M 517.242605 702.484547 L 517.242605 814.419652 " stroke="#2c2727" stroke-width="25" stroke-opacity="1" stroke-miterlimit="4"/><path stroke-linecap="round" transform="matrix(0, 0.492139, -0.545761, 0, 465.392758, -123.672297)" fill="none" stroke-linejoin="round" d="M 664.003184 531.994478 L 583.320583 531.994478 " stroke="#2c2727" stroke-width="25" stroke-opacity="1" stroke-miterlimit="4"/><path stroke-linecap="round" transform="matrix(0, 0.492139, -0.545761, 0, 465.392758, -123.672297)" fill="none" stroke-linejoin="round" d="M 766.068857 234.180822 C 766.068857 234.180822 765.465623 233.579597 765.465623 233.579597 C 763.251118 231.260589 756.821909 224.682907 755.813872 223.902747 C 753.996232 222.55715 751.503921 221.369016 750.360951 221.526479 C 748.440126 221.848564 746.503426 222.714613 745.431891 223.594978 C 745.431891 223.594978 744.423854 224.503972 744.423854 224.503972 C 744.423854 224.503972 733.795817 235.397586 733.795817 235.397586 C 733.795817 235.397586 708.190104 261.006883 708.190104 261.006883 C 687.100712 282.056895 646.152208 322.897212 626.277222 342.716145 C 625.332684 343.668084 623.753163 345.235562 623.118179 345.865416 C 623.118179 345.865416 615.63331 338.471787 615.63331 338.471787 C 615.63331 338.471787 603.132071 326.08227 603.132071 326.08227 C 603.132071 326.08227 558.88959 281.935219 558.88959 281.935219 C 558.88959 281.935219 519.290427 242.340296 519.290427 242.340296 C 514.472489 237.494714 501.161646 223.967164 500.344104 223.315838 C 499.129698 222.378214 493.803774 221.46922 492.240126 222.235065 C 490.922536 222.936494 486.223657 227.266741 483.096363 230.437484 C 483.096363 230.437484 469.523589 244.129655 469.523589 244.129655 C 469.523589 244.129655 461.348175 252.217555 461.348175 252.217555 " stroke="#2c2727" stroke-width="15" stroke-opacity="1" stroke-miterlimit="4"/><path stroke-linecap="round" transform="matrix(0, 0.492139, -0.545761, 0, 465.392758, -123.672297)" fill="none" stroke-linejoin="round" d="M 675.639258 398.393822 C 675.639258 398.393822 688.219871 411.25573 688.219871 411.25573 C 688.219871 411.25573 709.102893 432.155436 709.102893 432.155436 C 709.102893 432.155436 764.50521 487.604075 764.50521 487.604075 C 764.50521 487.604075 784.023018 506.678635 784.023018 506.678635 C 784.023018 506.678635 797.175115 520.9434 797.175115 520.9434 C 797.175115 520.9434 797.579917 522.661184 797.579917 522.661184 C 797.579917 522.661184 797.643416 524.436228 797.643416 524.436228 C 797.643416 524.436228 797.381485 526.182642 797.381485 526.182642 C 797.381485 526.182642 796.754439 527.843166 796.754439 527.843166 C 796.754439 527.843166 784.904058 540.332888 784.904058 540.332888 C 784.904058 540.332888 771.291597 553.967799 771.291597 553.967799 C 771.291597 553.967799 761.576348 563.594547 761.576348 563.594547 C 761.576348 563.594547 759.544401 565.620101 759.544401 565.620101 " stroke="#2c2727" stroke-width="15" stroke-opacity="1" stroke-miterlimit="4"/><path stroke-linecap="round" transform="matrix(0, 0.492139, -0.545761, 0, 465.392758, -123.672297)" fill="none" stroke-linejoin="round" d="M 789.166385 271.664302 C 789.166385 271.664302 779.387638 281.362624 779.387638 281.362624 C 757.34577 303.393205 713.674775 347.089337 692.045647 368.704787 C 689.116785 371.65365 685.457692 375.296783 684.775085 375.983897 C 684.775085 375.983897 662.439537 398.143312 662.439537 398.143312 C 662.439537 398.143312 651.8115 408.55022 651.8115 408.55022 C 651.8115 408.55022 661.883927 418.720933 661.883927 418.720933 C 661.883927 418.720933 681.401734 438.153366 681.401734 438.153366 C 681.401734 438.153366 740.661577 497.359657 740.661577 497.359657 C 740.661577 497.359657 760.04445 516.512949 760.04445 516.512949 C 760.04445 516.512949 779.467011 535.78076 779.467011 535.78076 C 779.467011 535.78076 750.233954 564.754052 750.233954 564.754052 C 750.233954 564.754052 740.2409 555.406443 740.2409 555.406443 C 740.2409 555.406443 736.335751 551.42691 736.335751 551.42691 C 736.335751 551.42691 715.500352 530.620251 715.500352 530.620251 C 715.500352 530.620251 653.605328 468.522356 653.605328 468.522356 C 653.605328 468.522356 633.452537 448.195245 633.452537 448.195245 C 633.452537 448.195245 622.903872 437.623715 622.903872 437.623715 C 622.903872 437.623715 613.077501 447.243306 613.077501 447.243306 C 613.077501 447.243306 603.16382 457.306658 603.16382 457.306658 C 603.16382 457.306658 603.941675 456.512183 603.941675 456.512183 C 603.941675 456.512183 603.068573 457.414019 603.068573 457.414019 C 603.068573 457.414019 588.956063 471.750359 588.956063 471.750359 C 588.956063 471.750359 530.037524 530.577306 530.037524 530.577306 C 530.037524 530.577306 495.367421 564.904358 495.367421 564.904358 C 495.367421 564.904358 466.539166 536.095687 466.539166 536.095687 C 466.539166 536.095687 497.383493 505.375982 497.383493 505.375982 C 497.383493 505.375982 544.800892 457.950827 544.800892 457.950827 C 544.800892 457.950827 575.542035 427.102288 575.542035 427.102288 C 575.542035 427.102288 593.837499 408.686211 593.837499 408.686211 C 593.837499 408.686211 584.233372 399.145352 584.233372 399.145352 C 584.233372 399.145352 574.795929 389.704697 574.795929 389.704697 C 574.795929 389.704697 558.326042 373.228285 558.326042 373.228285 C 558.326042 373.228285 497.161249 312.010755 497.161249 312.010755 C 497.161249 312.010755 469.523589 284.447478 469.523589 284.447478 C 469.523589 284.447478 460.943373 275.915817 460.943373 275.915817 C 458.244693 273.217465 455.331706 270.075352 455.506326 268.493559 C 455.506326 268.493559 483.405917 240.386317 483.405917 240.386317 C 483.405917 240.386317 505.685904 262.545731 505.685904 262.545731 C 505.685904 262.545731 531.910726 288.806355 531.910726 288.806355 C 531.910726 288.806355 576.208767 332.867517 576.208767 332.867517 C 576.208767 332.867517 622.79275 379.12601 622.79275 379.12601 C 644.342505 357.653709 688.267494 313.857373 710.66654 291.561967 C 712.119065 290.109008 714.428818 287.804315 715.270171 286.95258 C 715.270171 286.95258 744.534977 257.599945 744.534977 257.599945 C 744.534977 257.599945 761.695408 240.622512 761.695408 240.622512 C 761.695408 240.622512 765.481497 243.4998 765.481497 243.4998 C 765.481497 243.4998 772.156762 250.192001 772.156762 250.192001 C 772.156762 250.192001 783.046731 261.006883 783.046731 261.006883 C 783.046731 261.006883 790.468101 269.517072 790.468101 269.517072 " stroke="#2c2727" stroke-width="25" stroke-opacity="1" stroke-miterlimit="4"/><path stroke-linecap="round" transform="matrix(0, 0.492139, -0.545761, 0, 465.392758, -123.672297)" fill="none" stroke-linejoin="round" d="M 456.077812 525.173444 C 456.077812 525.173444 455.688884 524.393283 455.688884 524.393283 C 456.823917 522.002701 463.142004 516.11929 464.054793 515.238926 C 465.547004 513.785967 468.134562 511.159189 469.094975 510.171463 C 469.094975 510.171463 500.105986 479.072414 500.105986 479.072414 C 500.105986 479.072414 576.843751 401.929594 576.843751 401.929594 " stroke="#2c2727" stroke-width="15" stroke-opacity="1" stroke-miterlimit="4"/></svg>